<svg xmlns="http://www.w3.org/2000/svg" xmlns:xlink="http://www.w3.org/1999/xlink" viewBox="0 0 1000 1000" width="1000" height="1000" preserveAspectRatio="xMidYMid meet" style="width: 100%; height: 100%; transform: translate3d(0px, 0px, 0px); content-visibility: visible;"><defs><clipPath id="__lottie_element_6400"><rect width="1000" height="1000" x="0" y="0"></rect></clipPath><linearGradient id="__lottie_element_6404" spreadMethod="pad" gradientUnits="userSpaceOnUse" x1="-101.76300048828125" y1="-134.2429962158203" x2="133.927001953125" y2="101.447998046875"><stop offset="0%" stop-color="rgb(78,233,168)"></stop><stop offset="29%" stop-color="rgb(77,229,166)"></stop><stop offset="58%" stop-color="rgb(75,226,163)"></stop><stop offset="69%" stop-color="rgb(76,225,163)"></stop><stop offset="80%" stop-color="rgb(72,224,161)"></stop><stop offset="90%" stop-color="rgb(59,222,154)"></stop><stop offset="100%" stop-color="rgb(51,219,149)"></stop></linearGradient><linearGradient id="__lottie_element_6408" spreadMethod="pad" gradientUnits="userSpaceOnUse" x1="-84.58100128173828" y1="-204.06500244140625" x2="83.66799926757812" y2="202.1230010986328"><stop offset="0%" stop-color="rgb(224,250,239)"></stop><stop offset="9%" stop-color="rgb(229,250,241)"></stop><stop offset="18%" stop-color="rgb(234,250,244)"></stop><stop offset="52%" stop-color="rgb(202,226,216)"></stop><stop offset="86%" stop-color="rgb(166,201,187)"></stop><stop offset="93%" stop-color="rgb(189,214,204)"></stop><stop offset="100%" stop-color="rgb(208,225,218)"></stop></linearGradient><linearGradient id="__lottie_element_6412" spreadMethod="pad" gradientUnits="userSpaceOnUse" x1="18.06100082397461" y1="-126.52799987792969" x2="-22.851999282836914" y2="127.88400268554688"><stop offset="0%" stop-color="rgb(82,204,153)"></stop><stop offset="38%" stop-color="rgb(73,171,131)"></stop><stop offset="75%" stop-color="rgb(62,142,109)"></stop><stop offset="88%" stop-color="rgb(61,169,124)"></stop><stop offset="100%" stop-color="rgb(60,200,142)"></stop></linearGradient><linearGradient id="__lottie_element_6416" spreadMethod="pad" gradientUnits="userSpaceOnUse" x1="-223" y1="-324" x2="-219" y2="-122"><stop offset="0%" stop-color="rgb(82,204,153)"></stop><stop offset="38%" stop-color="rgb(73,171,131)"></stop><stop offset="75%" stop-color="rgb(62,142,109)"></stop><stop offset="88%" stop-color="rgb(61,169,124)"></stop><stop offset="100%" stop-color="rgb(60,200,142)"></stop></linearGradient><linearGradient id="__lottie_element_6420" spreadMethod="pad" gradientUnits="userSpaceOnUse" x1="63.18199920654297" y1="-10.24899959564209" x2="-87.43800354003906" y2="13.972999572753906"><stop offset="0%" stop-color="rgb(224,250,239)"></stop><stop offset="9%" stop-color="rgb(229,250,241)"></stop><stop offset="18%" stop-color="rgb(234,250,244)"></stop><stop offset="52%" stop-color="rgb(202,226,216)"></stop><stop offset="86%" stop-color="rgb(166,201,187)"></stop><stop offset="93%" stop-color="rgb(189,214,204)"></stop><stop offset="100%" stop-color="rgb(208,225,218)"></stop></linearGradient><linearGradient id="__lottie_element_6424" spreadMethod="pad" gradientUnits="userSpaceOnUse" x1="148.04200744628906" y1="-0.6769999861717224" x2="-147.10699462890625" y2="-0.6769999861717224"><stop offset="0%" stop-color="rgb(82,204,153)"></stop><stop offset="38%" stop-color="rgb(73,171,131)"></stop><stop offset="75%" stop-color="rgb(62,142,109)"></stop><stop offset="88%" stop-color="rgb(61,169,124)"></stop><stop offset="100%" stop-color="rgb(60,200,142)"></stop></linearGradient><linearGradient id="__lottie_element_6428" spreadMethod="pad" gradientUnits="userSpaceOnUse" x1="87.04199981689453" y1="-0.6769999861717224" x2="-86.3759994506836" y2="-0.6769999861717224"><stop offset="0%" stop-color="rgb(224,250,239)"></stop><stop offset="9%" stop-color="rgb(229,250,241)"></stop><stop offset="18%" stop-color="rgb(234,250,244)"></stop><stop offset="52%" stop-color="rgb(202,226,216)"></stop><stop offset="86%" stop-color="rgb(166,201,187)"></stop><stop offset="93%" stop-color="rgb(189,214,204)"></stop><stop offset="100%" stop-color="rgb(208,225,218)"></stop></linearGradient><linearGradient id="__lottie_element_6432" spreadMethod="pad" gradientUnits="userSpaceOnUse" x1="45.090999603271484" y1="-0.7260000109672546" x2="-43.435001373291016" y2="-0.7260000109672546"><stop offset="0%" stop-color="rgb(82,204,153)"></stop><stop offset="38%" stop-color="rgb(73,171,131)"></stop><stop offset="75%" stop-color="rgb(62,142,109)"></stop><stop offset="88%" stop-color="rgb(61,169,124)"></stop><stop offset="100%" stop-color="rgb(60,200,142)"></stop></linearGradient><linearGradient id="__lottie_element_6436" spreadMethod="pad" gradientUnits="userSpaceOnUse" x1="166.4320068359375" y1="-0.8679999709129333" x2="-164.60800170898438" y2="-0.8679999709129333"><stop offset="0%" stop-color="rgb(15,255,155)"></stop><stop offset="22%" stop-color="rgb(10,255,153)"></stop><stop offset="43%" stop-color="rgb(0,255,149)"></stop><stop offset="71%" stop-color="rgb(0,255,149)"></stop><stop offset="100%" stop-color="rgb(0,255,149)"></stop></linearGradient><linearGradient id="__lottie_element_6440" spreadMethod="pad" gradientUnits="userSpaceOnUse" x1="130.48399353027344" y1="-0.871999979019165" x2="-128.94000244140625" y2="-0.871999979019165"><stop offset="0%" stop-color="rgb(51,219,149)"></stop><stop offset="10%" stop-color="rgb(59,222,154)"></stop><stop offset="20%" stop-color="rgb(72,224,161)"></stop><stop offset="31%" stop-color="rgb(76,225,163)"></stop><stop offset="42%" stop-color="rgb(75,226,163)"></stop><stop offset="62%" stop-color="rgb(95,231,175)"></stop><stop offset="82%" stop-color="rgb(117,235,186)"></stop><stop offset="91%" stop-color="rgb(97,234,177)"></stop><stop offset="100%" stop-color="rgb(78,233,168)"></stop></linearGradient><linearGradient id="__lottie_element_6444" spreadMethod="pad" gradientUnits="userSpaceOnUse" x1="11.680000305175781" y1="44.393001556396484" x2="-12.36400032043457" y2="-45.340999603271484"><stop offset="0%" stop-color="rgb(82,204,153)"></stop><stop offset="38%" stop-color="rgb(73,171,131)"></stop><stop offset="75%" stop-color="rgb(62,142,109)"></stop><stop offset="88%" stop-color="rgb(61,169,124)"></stop><stop offset="100%" stop-color="rgb(60,200,142)"></stop></linearGradient><linearGradient id="__lottie_element_6448" spreadMethod="pad" gradientUnits="userSpaceOnUse" x1="-30.69300079345703" y1="41.084999084472656" x2="14.03499984741211" y2="-20.76799964904785"><stop offset="0%" stop-color="rgb(250,255,253)"></stop><stop offset="28%" stop-color="rgb(245,250,248)"></stop><stop offset="56%" stop-color="rgb(234,250,244)"></stop><stop offset="78%" stop-color="rgb(196,253,229)"></stop><stop offset="100%" stop-color="rgb(158,255,215)"></stop></linearGradient><linearGradient id="__lottie_element_6452" spreadMethod="pad" gradientUnits="userSpaceOnUse" x1="-23.98200035095215" y1="-28.104000091552734" x2="5.00600004196167" y2="5.3379998207092285"><stop offset="0%" stop-color="rgb(250,255,253)"></stop><stop offset="28%" stop-color="rgb(245,250,248)"></stop><stop offset="56%" stop-color="rgb(234,250,244)"></stop><stop offset="78%" stop-color="rgb(196,253,229)"></stop><stop offset="100%" stop-color="rgb(158,255,215)"></stop></linearGradient><linearGradient id="__lottie_element_6456" spreadMethod="pad" gradientUnits="userSpaceOnUse" x1="30.386999130249023" y1="-0.8690000176429749" x2="-29.031999588012695" y2="-0.8690000176429749"><stop offset="0%" stop-color="rgb(15,255,155)"></stop><stop offset="22%" stop-color="rgb(10,255,153)"></stop><stop offset="43%" stop-color="rgb(0,255,149)"></stop><stop offset="71%" stop-color="rgb(0,255,149)"></stop><stop offset="100%" stop-color="rgb(0,255,149)"></stop></linearGradient><linearGradient id="__lottie_element_6460" spreadMethod="pad" gradientUnits="userSpaceOnUse" x1="0" y1="-25.89699935913086" x2="-0.04399999976158142" y2="17.739999771118164"><stop offset="0%" stop-color="rgb(158,255,215)"></stop><stop offset="22%" stop-color="rgb(196,253,229)"></stop><stop offset="44%" stop-color="rgb(234,250,244)"></stop><stop offset="72%" stop-color="rgb(245,250,248)"></stop><stop offset="100%" stop-color="rgb(250,255,253)"></stop></linearGradient><linearGradient id="__lottie_element_6464" spreadMethod="pad" gradientUnits="userSpaceOnUse" x1="-1" y1="25.187000274658203" x2="-0.9559999704360962" y2="-18.448999404907227"><stop offset="0%" stop-color="rgb(158,255,215)"></stop><stop offset="22%" stop-color="rgb(196,253,229)"></stop><stop offset="44%" stop-color="rgb(234,250,244)"></stop><stop offset="72%" stop-color="rgb(245,250,248)"></stop><stop offset="100%" stop-color="rgb(250,255,253)"></stop></linearGradient><linearGradient id="__lottie_element_6468" spreadMethod="pad" gradientUnits="userSpaceOnUse" x1="-25.427000045776367" y1="-1" x2="18.208999633789062" y2="-0.9559999704360962"><stop offset="0%" stop-color="rgb(158,255,215)"></stop><stop offset="22%" stop-color="rgb(196,253,229)"></stop><stop offset="44%" stop-color="rgb(234,250,244)"></stop><stop offset="72%" stop-color="rgb(245,250,248)"></stop><stop offset="100%" stop-color="rgb(250,255,253)"></stop></linearGradient><linearGradient id="__lottie_element_6472" spreadMethod="pad" gradientUnits="userSpaceOnUse" x1="24.6560001373291" y1="0" x2="-18.981000900268555" y2="-0.04399999976158142"><stop offset="0%" stop-color="rgb(158,255,215)"></stop><stop offset="22%" stop-color="rgb(196,253,229)"></stop><stop offset="44%" stop-color="rgb(234,250,244)"></stop><stop offset="72%" stop-color="rgb(245,250,248)"></stop><stop offset="100%" stop-color="rgb(250,255,253)"></stop></linearGradient><clipPath id="__lottie_element_6474"><path fill="#ffffff" clip-rule="nonzero" d=" M-156.1280059814453,-106.89700317382812 C-194.9530029296875,-106.89700317382812 -226.427001953125,-75.4229965209961 -226.427001953125,-36.597999572753906 C-226.427001953125,2.2269999980926514 -194.9530029296875,33.70100021362305 -156.1280059814453,33.70100021362305 C-117.3030014038086,33.70100021362305 -85.8290023803711,2.2269999980926514 -85.8290023803711,-36.597999572753906 C-85.8290023803711,-75.4229965209961 -117.3030014038086,-106.89700317382812 -156.1280059814453,-106.89700317382812" fill-opacity="1"></path></clipPath></defs><g clip-path="url(#__lottie_element_6400)"><g transform="matrix(1,0,0,1,511.76300048828125,551.2429809570312)" opacity="1" style="display: block;"><g opacity="1" transform="matrix(1,0,0,1,0,0)"><path fill="url(#__lottie_element_6404)" fill-opacity="1" d=" M344.20147705078125,-331.32427978515625 C344.219482421875,-334.49627685546875 342.9484558105469,-337.6362609863281 340.7424621582031,-339.8422546386719 C338.48345947265625,-342.10125732421875 335.396484375,-343.3182678222656 332.1734619140625,-343.35125732421875 C296.3884582519531,-343.3882751464844 189.41146850585938,-343.3442687988281 137.5064697265625,-343.3362731933594 C132.61947631835938,-343.38427734375 128.25146484375,-340.3792724609375 126.43047332763672,-335.9322814941406 C124.553466796875,-331.42926025390625 125.5643310546875,-326.3472595214844 129.02932739257812,-322.88226318359375 C129.02932739257812,-322.88226318359375 180.92047119140625,-270.9902648925781 180.92047119140625,-270.9902648925781 C183.2334747314453,-268.6772766113281 183.20147705078125,-264.8642578125 180.89146423339844,-262.5552673339844 C180.89146423339844,-262.5552673339844 -298.1990051269531,215.677001953125 -298.1990051269531,215.677001953125 C-302.8739929199219,220.3520050048828 -302.8340148925781,227.97999572753906 -298.15899658203125,232.65499877929688 C-298.15899658203125,232.65499877929688 -232.6649932861328,298.1499938964844 -232.6649932861328,298.1499938964844 C-227.93800354003906,302.87701416015625 -220.36099243164062,302.864013671875 -215.68600463867188,298.1889953613281 C-157.66400146484375,240.16700744628906 221.6604766845703,-138.2982635498047 263.40447998046875,-180.04226684570312 C265.7144775390625,-182.3512725830078 269.5264587402344,-182.38340759277344 271.8914794921875,-180.01927185058594 C271.8914794921875,-180.01927185058594 323.7314758300781,-128.1792755126953 323.7314758300781,-128.1792755126953 C327.19647216796875,-124.71427154541016 332.33245849609375,-123.6492691040039 336.8354797363281,-125.5262680053711 C341.282470703125,-127.3472671508789 344.23345947265625,-131.770263671875 344.1834716796875,-136.65927124023438 C344.1944580078125,-188.56126403808594 344.23846435546875,-295.5392761230469 344.20147705078125,-331.32427978515625z"></path></g></g><g transform="matrix(1,0,0,1,484.58099365234375,536.0650024414062)" opacity="1" style="display: block;"><path fill="url(#__lottie_element_6408)" fill-opacity="1" d=" M106.56,153.49 C106.56,153.49 139.6,169.79 139.6,169.79 C161.91,151.46 180.39,128.89 193.94,103.45 C193.94,103.45 171.48,74.22 171.48,74.22 C177.12,61.06 181.33,47.28 183.86,33.17 C183.86,33.17 218.76,21.34 218.76,21.34 C221.55,-7.42 218.67,-36.38 210.27,-64.03 C210.27,-64.03 173.72,-68.76 173.72,-68.76 C168.46,-82.09 161.62,-94.78 153.47,-106.53 C153.47,-106.53 169.8,-139.62 169.8,-139.62 C151.47,-161.92 128.9,-180.41 103.41,-193.99 C103.41,-193.99 74.19,-171.46 74.19,-171.46 C61.07,-177.14 47.29,-181.34 33.18,-183.87 C33.18,-183.87 21.34,-218.77 21.34,-218.77 C-7.42,-221.56 -36.38,-218.68 -64.03,-210.28 C-64.03,-210.28 -68.75,-173.73 -68.75,-173.73 C-82.09,-168.47 -94.77,-161.63 -106.52,-153.48 C-106.52,-153.48 -139.64,-169.77 -139.64,-169.77 C-161.92,-151.48 -180.4,-128.91 -193.98,-103.43 C-193.98,-103.43 -171.45,-74.21 -171.45,-74.21 C-177.13,-61.08 -181.34,-47.3 -183.86,-33.19 C-183.86,-33.19 -218.77,-21.35 -218.77,-21.35 C-221.56,7.41 -218.68,36.37 -210.28,64.01 C-210.28,64.01 -173.72,68.74 -173.72,68.74 C-168.47,82.08 -161.63,94.76 -153.51,106.55 C-153.51,106.55 -169.81,139.6 -169.81,139.6 C-151.48,161.9 -128.91,180.39 -103.42,193.97 C-103.42,193.97 -74.24,171.48 -74.24,171.48 C-61.08,177.12 -47.3,181.32 -33.18,183.85 C-33.18,183.85 -21.35,218.76 -21.35,218.76 C7.41,221.54 36.37,218.66 64.02,210.26 C64.02,210.26 68.75,173.71 68.75,173.71 C82.08,168.45 94.77,161.62 106.56,153.49z"></path><g opacity="1" transform="matrix(0.4722531735897064,0.8814629912376404,-0.8814629912376404,0.4722531735897064,0,0)"></g></g><g transform="matrix(1,0,0,1,271.9389953613281,275.52801513671875)" opacity="1" style="display: block;"><path fill="url(#__lottie_element_6412)" fill-opacity="1" d=" M-48.11,-0.56 C-49.24,26.99 -27.78,50.28 -0.23,51.41 C27.32,52.54 50.61,31.08 51.74,3.53 C52.87,-24.02 31.41,-47.31 3.86,-48.44 C-23.69,-49.57 -46.98,-28.11 -48.11,-0.56z M-61.92,-110.49 C-61.92,-110.49 -63.69,-73.55 -63.69,-73.55 C-72.9,-65.52 -80.58,-55.81 -86.29,-44.98 C-86.29,-44.98 -121.82,-34.77 -121.82,-34.77 C-127.76,-14.52 -128.63,6.84 -124.38,27.51 C-124.38,27.51 -89.8,40.59 -89.8,40.59 C-85,51.85 -78.14,62.15 -69.6,70.92 C-69.6,70.92 -70.87,107.87 -70.87,107.87 C-53.45,119.78 -33.39,127.22 -12.43,129.53 C-12.43,129.53 10.69,100.69 10.69,100.69 C22.9,99.61 34.79,96.28 45.8,90.84 C45.8,90.84 80.52,103.48 80.52,103.48 C97.22,90.61 110.52,73.82 119.18,54.6 C119.18,54.6 98.92,23.7 98.92,23.7 C101.65,11.77 102.16,-0.6 100.41,-12.71 C100.41,-12.71 123.13,-41.85 123.13,-41.85 C116.07,-61.71 104.19,-79.54 88.6,-93.73 C88.6,-93.73 52.96,-83.97 52.96,-83.97 C42.44,-90.29 30.86,-94.58 18.77,-96.65 C18.77,-96.65 -1.91,-127.29 -1.91,-127.29 C-22.99,-126.7 -43.59,-120.93 -61.92,-110.49z"></path><g opacity="1" transform="matrix(-0.1182248443365097,-0.9929868578910828,0.9929868578910828,-0.1182248443365097,0,0)"><g opacity="1" transform="matrix(0.9873142242431641,0.15877844393253326,-0.15877844393253326,0.9873142242431641,-1.6890000104904175,1.6269999742507935)"></g><g opacity="1" transform="matrix(1,0,0,1,0,0)"></g></g></g><g transform="matrix(1,0,0,1,500,500)" opacity="1" style="display: block;"><g opacity="1" transform="matrix(1,0,0,1,0,0)"><path fill="url(#__lottie_element_6416)" fill-opacity="1" d=" M-229.5,-323.75 C-272.75,-323.75 -330.25,-283.5 -330.25,-221.5 C-330.25,-159.5 -277.25,-121.5 -227.25,-121.5 C-177.25,-121.5 -128.25,-163.25 -128.25,-222.25 C-128.25,-282.25 -179,-323.75 -229.5,-323.75z"></path></g></g><g transform="matrix(0.15877844393253326,-0.9873142242431641,0.9873142242431641,0.15877844393253326,270.0870056152344,277.00799560546875)" opacity="1" style="display: block;"><g opacity="1" transform="matrix(1,0,0,1,0,0)"><path fill="url(#__lottie_element_6420)" fill-opacity="1" d=" M0,-63.70399856567383 C35.15823745727539,-63.70399856567383 63.70399856567383,-35.15823745727539 63.70399856567383,0 C63.70399856567383,35.15823745727539 35.15823745727539,63.70399856567383 0,63.70399856567383 C-35.15823745727539,63.70399856567383 -63.70399856567383,35.15823745727539 -63.70399856567383,0 C-63.70399856567383,-35.15823745727539 -35.15823745727539,-63.70399856567383 0,-63.70399856567383z"></path></g></g><g transform="matrix(0,-1,1,0,484.677001953125,536.0419921875)" opacity="1" style="display: block;"><g opacity="1" transform="matrix(1,0,0,1,0,0)"><path fill="url(#__lottie_element_6424)" fill-opacity="1" d=" M0,-147.5749969482422 C81.44664001464844,-147.5749969482422 147.5749969482422,-81.44664001464844 147.5749969482422,0 C147.5749969482422,81.44664001464844 81.44664001464844,147.5749969482422 0,147.5749969482422 C-81.44664001464844,147.5749969482422 -147.5749969482422,81.44664001464844 -147.5749969482422,0 C-147.5749969482422,-81.44664001464844 -81.44664001464844,-147.5749969482422 0,-147.5749969482422z"></path></g></g><g transform="matrix(0,-1,1,0,484.677001953125,536.0419921875)" opacity="1" style="display: block;"><g opacity="1" transform="matrix(1,0,0,1,0,0)"><path fill="url(#__lottie_element_6428)" fill-opacity="1" d=" M0,-86.70950317382812 C47.854976654052734,-86.70950317382812 86.70950317382812,-47.854976654052734 86.70950317382812,0 C86.70950317382812,47.854976654052734 47.854976654052734,86.70950317382812 0,86.70950317382812 C-47.854976654052734,86.70950317382812 -86.70950317382812,47.854976654052734 -86.70950317382812,0 C-86.70950317382812,-47.854976654052734 -47.854976654052734,-86.70950317382812 0,-86.70950317382812z"></path></g></g><g transform="matrix(0,-1,1,0,484.72601318359375,536.0910034179688)" opacity="1" style="display: block;"><g opacity="1" transform="matrix(1,0,0,1,0,0)"><path fill="url(#__lottie_element_6432)" fill-opacity="1" d=" M0,-44.26350021362305 C24.429025650024414,-44.26350021362305 44.26350021362305,-24.429025650024414 44.26350021362305,0 C44.26350021362305,24.429025650024414 24.429025650024414,44.26350021362305 0,44.26350021362305 C-24.429025650024414,44.26350021362305 -44.26350021362305,24.429025650024414 -44.26350021362305,0 C-44.26350021362305,-24.429025650024414 -24.429025650024414,-44.26350021362305 0,-44.26350021362305z"></path></g></g><g transform="matrix(0,-1,1,0,690.8679809570312,692.4320068359375)" opacity="1" style="display: block;"><g opacity="1" transform="matrix(1,0,0,1,0,0)"><path fill="url(#__lottie_element_6436)" fill-opacity="1" d=" M0,-165.52099609375 C91.35076141357422,-165.52099609375 165.52049255371094,-91.35103607177734 165.52049255371094,0 C165.52049255371094,91.35103607177734 91.35076141357422,165.52099609375 0,165.52099609375 C-91.35076141357422,165.52099609375 -165.52049255371094,91.35103607177734 -165.52049255371094,0 C-165.52049255371094,-91.35103607177734 -91.35076141357422,-165.52099609375 0,-165.52099609375z"></path></g></g><g transform="matrix(0,-1,1,0,690.8720092773438,692.4840087890625)" opacity="1" style="display: block;"><g opacity="1" transform="matrix(1,0,0,1,0,0)"><path fill="url(#__lottie_element_6440)" fill-opacity="1" d=" M0,-129.71299743652344 C71.58805847167969,-129.71299743652344 129.71200561523438,-71.5886001586914 129.71200561523438,0 C129.71200561523438,71.5886001586914 71.58805847167969,129.71299743652344 0,129.71299743652344 C-71.58805847167969,129.71299743652344 -129.71200561523438,71.5886001586914 -129.71200561523438,0 C-129.71200561523438,-71.5886001586914 -71.58805847167969,-129.71299743652344 0,-129.71299743652344z"></path></g></g><g transform="matrix(-0.6833144426345825,0.7301241755485535,-0.7301241755485535,-0.6833144426345825,704.474365234375,742.9646606445312)" opacity="1" style="display: block;"><g opacity="1" transform="matrix(1,0,0,1,0,0)"><path fill="url(#__lottie_element_6444)" fill-opacity="1" d=" M30.95800018310547,-53.652000427246094 C26.638999938964844,-56.137001037597656 21.106000900268555,-54.65399932861328 18.607999801635742,-50.34299850463867 C18.607999801635742,-50.34299850463867 -34.277000427246094,41.26100158691406 -34.277000427246094,41.26100158691406 C-36.775001525878906,45.571998596191406 -35.2760009765625,51.167999267578125 -30.957000732421875,53.65299987792969 C-26.638999938964844,56.137001037597656 -21.106000900268555,54.65399932861328 -18.607999801635742,50.34400177001953 C-18.607999801635742,50.34400177001953 34.27799987792969,-41.26100158691406 34.27799987792969,-41.26100158691406 C36.775001525878906,-45.571998596191406 35.2760009765625,-51.16699981689453 30.95800018310547,-53.652000427246094z"></path></g></g><g transform="matrix(-0.9421533346176147,0.33518216013908386,-0.33518216013908386,-0.9421533346176147,706.6073608398438,640.6807861328125)" opacity="1" style="display: block;"><g opacity="1" transform="matrix(1,0,0,1,0,0)"><path fill="url(#__lottie_element_6448)" fill-opacity="1" d=" M32.08000183105469,-43.41299819946289 C23.340999603271484,-49.87300109863281 11.038000106811523,-48.071998596191406 4.603000164031982,-39.367000579833984 C4.603000164031982,-39.367000579833984 -36.152000427246094,15.762999534606934 -36.152000427246094,15.762999534606934 C-42.7400016784668,24.673999786376953 -40.85300064086914,36.965999603271484 -32.11399841308594,43.42599868774414 C-23.374000549316406,49.887001037597656 -11.069999694824219,48.08599853515625 -4.48199987411499,39.17499923706055 C-4.48199987411499,39.17499923706055 36.27199935913086,-15.956000328063965 36.27199935913086,-15.956000328063965 C42.707000732421875,-24.660999298095703 40.81999969482422,-36.95199966430664 32.08000183105469,-43.41299819946289z"></path></g></g><g transform="matrix(0.9484390020370483,0.3169597089290619,-0.3169597089290619,0.9484390020370483,676.2449340820312,657.6770629882812)" opacity="1" style="display: block;"><g opacity="1" transform="matrix(1,0,0,1,0,0)"><path fill="url(#__lottie_element_6452)" fill-opacity="1" d=" M26.70199966430664,0.5019999742507935 C26.70199966430664,0.5019999742507935 2.927000045776367,-26.43899917602539 2.927000045776367,-26.43899917602539 C-4.324999809265137,-34.65700149536133 -16.764999389648438,-35.417999267578125 -24.913000106811523,-28.226999282836914 C-33.0620002746582,-21.03499984741211 -33.854000091552734,-8.597999572753906 -26.601999282836914,-0.3799999952316284 C-26.601999282836914,-0.3799999952316284 -2.8269999027252197,26.56100082397461 -2.8269999027252197,26.56100082397461 C4.306000232696533,34.643001556396484 16.746000289916992,35.404998779296875 24.895000457763672,28.21299934387207 C33.042999267578125,21.02199935913086 33.834999084472656,8.583999633789062 26.70199966430664,0.5019999742507935z"></path></g></g><g transform="matrix(0,-1,1,0,690.8690185546875,692.3870239257812)" opacity="1" style="display: block;"><g opacity="1" transform="matrix(1,0,0,1,0,0)"><path fill="url(#__lottie_element_6456)" fill-opacity="1" d=" M0,-29.70949935913086 C16.39639663696289,-29.70949935913086 29.708999633789062,-16.39667320251465 29.708999633789062,0 C29.708999633789062,16.39667320251465 16.39639663696289,29.70949935913086 0,29.70949935913086 C-16.39639663696289,29.70949935913086 -29.708999633789062,16.39667320251465 -29.708999633789062,0 C-29.708999633789062,-16.39667320251465 -16.39639663696289,-29.70949935913086 0,-29.70949935913086z"></path></g></g><g transform="matrix(1,0,0,1,691,587.89697265625)" opacity="1" style="display: block;"><g opacity="1" transform="matrix(1,0,0,1,0,0)"><path fill="url(#__lottie_element_6460)" fill-opacity="1" d=" M0,-18.211000442504883 C-4.9679999351501465,-18.211000442504883 -9,-14.12600040435791 -9,-9.170999526977539 C-9,-9.170999526977539 -9,9.258000373840332 -9,9.258000373840332 C-9,14.213000297546387 -4.9679999351501465,18.211000442504883 0,18.211000442504883 C4.9670000076293945,18.211000442504883 9,14.213000297546387 9,9.258000373840332 C9,9.258000373840332 9,-9.170999526977539 9,-9.170999526977539 C9,-14.12600040435791 4.9670000076293945,-18.211000442504883 0,-18.211000442504883z"></path></g></g><g transform="matrix(1,0,0,1,691,796.81298828125)" opacity="1" style="display: block;"><g opacity="1" transform="matrix(1,0,0,1,0,0)"><path fill="url(#__lottie_element_6464)" fill-opacity="1" d=" M0,-18.211000442504883 C-4.9670000076293945,-18.211000442504883 -9,-14.213000297546387 -9,-9.258000373840332 C-9,-9.258000373840332 -9,9.170999526977539 -9,9.170999526977539 C-9,14.12600040435791 -4.9670000076293945,18.211000442504883 0,18.211000442504883 C4.9679999351501465,18.211000442504883 9,14.12600040435791 9,9.170999526977539 C9,9.170999526977539 9,-9.258000373840332 9,-9.258000373840332 C9,-14.213000297546387 4.9679999351501465,-18.211000442504883 0,-18.211000442504883z"></path></g></g><g transform="matrix(1,0,0,1,586.427001953125,692)" opacity="1" style="display: block;"><g opacity="1" transform="matrix(1,0,0,1,0,0)"><path fill="url(#__lottie_element_6468)" fill-opacity="1" d=" M9.258000373840332,-9 C9.258000373840332,-9 -9.170999526977539,-9 -9.170999526977539,-9 C-14.12600040435791,-9 -18.211000442504883,-4.9670000076293945 -18.211000442504883,0 C-18.211000442504883,4.9679999351501465 -14.12600040435791,9 -9.170999526977539,9 C-9.170999526977539,9 9.258000373840332,9 9.258000373840332,9 C14.213000297546387,9 18.211000442504883,4.9679999351501465 18.211000442504883,0 C18.211000442504883,-4.9670000076293945 14.213000297546387,-9 9.258000373840332,-9z"></path></g></g><g transform="matrix(1,0,0,1,795.343994140625,692)" opacity="1" style="display: block;"><g opacity="1" transform="matrix(1,0,0,1,0,0)"><path fill="url(#__lottie_element_6472)" fill-opacity="1" d=" M9.170999526977539,-9 C9.170999526977539,-9 -9.258000373840332,-9 -9.258000373840332,-9 C-14.213000297546387,-9 -18.211000442504883,-4.9679999351501465 -18.211000442504883,0 C-18.211000442504883,4.9670000076293945 -14.213000297546387,9 -9.258000373840332,9 C-9.258000373840332,9 9.170999526977539,9 9.170999526977539,9 C14.12600040435791,9 18.211000442504883,4.9670000076293945 18.211000442504883,0 C18.211000442504883,-4.9679999351501465 14.12600040435791,-9 9.170999526977539,-9z"></path></g></g><g clip-path="url(#__lottie_element_6474)" transform="matrix(1.8338199853897095,0,0,1.8338199853897095,977.5582275390625,759.7808837890625)" opacity="0.45" style="display: block;"><g opacity="1" transform="matrix(0.18384775519371033,0.18384775519371033,-0.18384775519371033,0.18384775519371033,-246.03065490722656,4)"><path fill="rgb(255,255,255)" fill-opacity="1" d=" M190,-1560 C190,-1560 190,1560 190,1560 C190,1560 154,1560 154,1560 C154,1560 154,-1560 154,-1560 C154,-1560 190,-1560 190,-1560z M130,-1560 C130,-1560 130,1560 130,1560 C130,1560 42,1560 42,1560 C42,1560 42,-1560 42,-1560 C42,-1560 130,-1560 130,-1560z"></path></g></g></g></svg>